<?xml version="1.0" encoding="utf-8"?>
<!-- Generator: Adobe Illustrator 18.1.1, SVG Export Plug-In . SVG Version: 6.00 Build 0)  -->
<svg version="1.1" id="Layer_1" xmlns="http://www.w3.org/2000/svg" xmlns:xlink="http://www.w3.org/1999/xlink" x="0px" y="0px"
	 viewBox="0 0 250 250" enable-background="new 0 0 250 250" xml:space="preserve">
<path fill="#0071BC" stroke="#00BDBC" stroke-width="2.2717" stroke-linejoin="bevel" stroke-miterlimit="10" d="M187.4,139.8
	c0,0-33.2-117.4-119.8-129.1c-53-7.2-51.4,44.4-51.4,44.4s-2.5,80.1,115.9,134.3"/>
<rect x="117.9" y="162.9" transform="matrix(-0.7439 0.6683 -0.6683 -0.7439 434.6852 203.2352)" fill="#0071BC" stroke="#00BDBC" stroke-width="2.0813" stroke-miterlimit="10" width="121" height="44"/>
<polygon fill="#0071BC" stroke="#00BDBC" stroke-width="2.2717" stroke-linejoin="bevel" stroke-miterlimit="10" points="127,166.2 
	165.1,132 208.7,128.1 118.7,208.9 "/>
<polygon fill="none" stroke="#00BDBC" stroke-width="2.2717" stroke-linejoin="bevel" stroke-miterlimit="10" points="127,166.2 
	165.1,132 176.6,156.9 150.3,180.6 "/>
<rect x="140.4" y="42.3" transform="matrix(-0.7439 0.6683 -0.6683 -0.7439 284.4636 -3.2063)" fill="#00BDBC" stroke="#00BDBC" stroke-width="2.2717" stroke-linejoin="bevel" stroke-miterlimit="10" width="4.9" height="21.3"/>
<rect x="48.9" y="124.5" transform="matrix(-0.7439 0.6683 -0.6683 -0.7439 179.7966 201.3168)" fill="#00BDBC" stroke="#00BDBC" stroke-width="2.2717" stroke-linejoin="bevel" stroke-miterlimit="10" width="4.9" height="21.3"/>
<polygon fill="#00BDBC" stroke="#00BDBC" stroke-width="2.2717" stroke-linejoin="bevel" stroke-miterlimit="10" points="95,18.4 
	92,15.1 75.9,9.5 70.5,11.1 "/>
<polygon fill="#00BDBC" stroke="#00BDBC" stroke-width="2.2717" stroke-linejoin="bevel" stroke-miterlimit="10" points="21.6,84.6 
	18.5,81.3 14.2,64.8 16.3,59.6 "/>
<line fill="none" stroke="#00BDBC" stroke-width="2.2717" stroke-linejoin="bevel" stroke-miterlimit="10" x1="75.6" y1="12.6" x2="17.8" y2="64.5"/>
<path fill="none" stroke="#00BDBC" stroke-width="2.2717" stroke-linejoin="bevel" stroke-miterlimit="10" d="M48.7,40.7"/>
<circle fill="none" stroke="#00BDBC" stroke-width="2.2717" stroke-linejoin="bevel" stroke-miterlimit="10" cx="93.3" cy="89.9" r="33.6"/>
<circle fill="#004DBC" stroke="#00BDBC" stroke-width="2.2717" stroke-linejoin="bevel" stroke-miterlimit="10" cx="93.2" cy="89.9" r="9"/>
<path fill="none" stroke="#00BDBC" stroke-width="2.2717" stroke-linejoin="bevel" stroke-miterlimit="10" d="M107.8,98.3l32.1,18.6
	L107.8,98.3c-0.9,1.5-2,2.9-3.3,4.1c-1.3,1.2-2.8,2.2-4.4,2.9l15,33.9l-15-33.9c-3.3,1.5-6.9,1.8-10.3,1.1L82,142.5
	c16.3,3.5,33.9-0.6,47.2-12.6c13.3-12,19.3-29.1,17.6-45.6l-36.8,3.8C110.3,91.6,109.6,95.2,107.8,98.3z"/>
<path fill="none" stroke="#00BDBC" stroke-width="2.2717" stroke-linejoin="bevel" stroke-miterlimit="10" d="M80.8,101.1
	l-27.6,24.8c7.9,8.8,18,14.4,28.8,16.7l7.7-36.2C86.4,105.5,83.3,103.8,80.8,101.1z"/>
<path fill="none" stroke="#00BDBC" stroke-width="2.2717" stroke-linejoin="bevel" stroke-miterlimit="10" d="M109.9,88.1l36.8-3.8
	c-1.1-10.9-5.6-21.6-13.5-30.4l-27.6,24.8C108.2,81.4,109.6,84.7,109.9,88.1z"/>
<path fill="none" stroke="#00BDBC" stroke-width="2.2717" stroke-linejoin="bevel" stroke-miterlimit="10" d="M78.8,81.5L46.7,62.9
	L78.8,81.5c0.9-1.5,2-2.9,3.3-4.1c1.3-1.2,2.8-2.2,4.4-2.9l-15-33.9l15,33.9c3.3-1.5,6.9-1.8,10.3-1.1l7.7-36.2
	c-16.3-3.5-33.9,0.6-47.2,12.6S38.1,78.9,39.8,95.4l36.8-3.8C76.2,88.1,77,84.6,78.8,81.5z"/>
<path fill="none" stroke="#00BDBC" stroke-width="2.2717" stroke-linejoin="bevel" stroke-miterlimit="10" d="M80.8,101.1
	c-2.5-2.7-3.8-6.1-4.2-9.5l-36.8,3.8c1.1,10.9,5.6,21.6,13.5,30.4L80.8,101.1z"/>
<path fill="none" stroke="#00BDBC" stroke-width="2.2717" stroke-linejoin="bevel" stroke-miterlimit="10" d="M105.7,78.7l27.6-24.8
	c-7.9-8.8-18-14.4-28.8-16.7l-7.7,36.2C100.1,74.2,103.3,75.9,105.7,78.7z"/>
<polygon fill="none" stroke="#00BDBC" stroke-width="2.2717" stroke-linejoin="bevel" stroke-miterlimit="10" points="93.3,89.9 
	93.3,89.9 93.3,89.9 "/>
<rect x="93.3" y="89.9" fill="none" stroke="#00BDBC" stroke-width="2.2717" stroke-linejoin="bevel" stroke-miterlimit="10" width="0" height="0"/>
<polygon fill="none" stroke="#00BDBC" stroke-width="2.2717" stroke-linejoin="bevel" stroke-miterlimit="10" points="93.3,89.9 
	93.3,89.9 93.3,89.9 "/>
<polygon fill="none" stroke="#00BDBC" stroke-width="2.2717" stroke-linejoin="bevel" stroke-miterlimit="10" points="93.3,89.9 
	93.3,89.9 93.3,89.9 "/>
<polygon fill="none" stroke="#00BDBC" stroke-width="2.2717" stroke-linejoin="bevel" stroke-miterlimit="10" points="93.3,89.9 
	93.3,89.9 93.3,89.9 "/>
<path fill="none" stroke="#00BDBC" stroke-width="2.2717" stroke-linejoin="bevel" stroke-miterlimit="10" d="M89.8,106.3
	c3.4,0.7,7,0.4,10.3-1.1c1.6-0.7,3.1-1.6,4.4-2.9c1.3-1.2,2.4-2.6,3.3-4.1c1.8-3.1,2.5-6.7,2.2-10.1c-0.4-3.4-1.7-6.7-4.2-9.5
	c-2.5-2.7-5.6-4.5-9-5.2c-3.4-0.7-7-0.4-10.3,1.1c-1.6,0.7-3.1,1.6-4.4,2.9c-1.3,1.2-2.4,2.6-3.3,4.1c-1.8,3.1-2.5,6.7-2.2,10.1
	c0.4,3.4,1.7,6.7,4.2,9.5C83.3,103.8,86.4,105.5,89.8,106.3z"/>
<path fill="none" stroke="#00BDBC" stroke-width="2.2717" stroke-linejoin="bevel" stroke-miterlimit="10" d="M133.4,127.6"/>
<polyline fill="none" stroke="#00BDBC" stroke-width="2.2717" stroke-linejoin="bevel" stroke-miterlimit="10" points="105.7,78.5 
	103.4,80.6 103.9,81.1 102.6,82.3 102.1,81.8 99.5,84.2 "/>
<line fill="none" stroke="#00BDBC" stroke-width="2.2717" stroke-linejoin="bevel" stroke-miterlimit="10" x1="105.4" y1="78.8" x2="104.2" y2="79.9"/>
<polyline fill="none" stroke="#00BDBC" stroke-width="2.2717" stroke-linejoin="bevel" stroke-miterlimit="10" points="80.5,101.2 
	82.8,99.1 83.3,99.7 84.6,98.5 84.1,97.9 86.8,95.6 "/>
<line fill="none" stroke="#00BDBC" stroke-width="2.2717" stroke-linejoin="bevel" stroke-miterlimit="10" x1="80.8" y1="100.9" x2="82.1" y2="99.8"/>
<path fill="none" stroke="#00BDBC" stroke-width="2.2717" stroke-miterlimit="10" d="M65.5,114.7c0.3,0.3,0.6,0.7,0.7,1.1
	c0.7,12,7.1,13.4,12.4,12.5c3.4-0.3,6.2-1.7,6.8-2c0.4,0,0.9,0.2,1.2,0.5c7.6,9.3,13.7,6.7,17.4,2.8c2.6-2.2,4-5,4.3-5.6
	c0.4-0.2,0.8-0.3,1.3-0.3c11.6,3.1,15-2.6,15.7-7.9c0.8-3.3,0.3-6.4,0.2-7.1c0.2-0.4,0.5-0.8,0.9-1c11.2-4.4,10.6-10.9,8-15.7
	c-1.3-3.1-3.5-5.4-4-5.8c-0.1-0.4-0.1-0.9,0.1-1.3c6.5-10.1,2.1-15-2.7-17.4c-2.9-1.8-6-2.3-6.7-2.4c-0.3-0.3-0.6-0.7-0.7-1.1
	c-0.7-12-7.1-13.4-12.4-12.5c-3.4,0.3-6.2,1.7-6.8,2c-0.4,0-0.9-0.2-1.2-0.5c-7.6-9.3-13.7-6.7-17.4-2.8c-2.6,2.2-4,5-4.3,5.6
	c-0.4,0.2-0.8,0.3-1.3,0.3C65.3,53,62,58.7,61.2,64c-0.8,3.3-0.3,6.4-0.2,7.1c-0.2,0.4-0.5,0.8-0.9,1C49,76.5,49.6,83,52.2,87.8
	c1.3,3.1,3.5,5.4,4,5.8c0.1,0.4,0.1,0.9-0.1,1.3c-6.5,10.1-2.1,15,2.7,17.4C61.6,114.1,64.8,114.6,65.5,114.7z"/>
</svg>
