<?xml version="1.0" encoding="utf-8"?>
<!-- Generator: Adobe Illustrator 19.1.0, SVG Export Plug-In . SVG Version: 6.00 Build 0)  -->
<svg version="1.1" id="Layer_1" xmlns="http://www.w3.org/2000/svg" xmlns:xlink="http://www.w3.org/1999/xlink" x="0px" y="0px"
	 viewBox="0 0 250 250" enable-background="new 0 0 250 250" xml:space="preserve">
<polygon fill="#9CC9EA" stroke="#0071BC" stroke-width="4" stroke-miterlimit="10" points="180,143 159,143 147.5,176 122,176 
	106.8,210 200,210 204.8,177 234,177 221.5,143 194,143 "/>
<circle fill="#0071BC" stroke="#0071BC" stroke-width="4" stroke-linecap="round" stroke-linejoin="round" stroke-miterlimit="10" cx="187" cy="167" r="5.7"/>
<circle fill="#0071BC" stroke="#0071BC" stroke-width="1.7945" stroke-miterlimit="10" cx="64.4" cy="125.9" r="43.9"/>
<circle fill="#FFFFFF" cx="64.2" cy="126.3" r="6.3"/>
<circle fill="#FFFFFF" cx="49.8" cy="126.3" r="5.1"/>
<circle fill="#FFFFFF" cx="78.6" cy="126.3" r="5.1"/>
<circle fill="#FFFFFF" cx="71.4" cy="113.7" r="5.1"/>
<circle fill="#FFFFFF" cx="57" cy="113.7" r="5.1"/>
<circle fill="#FFFFFF" cx="71.4" cy="138.9" r="5.1"/>
<circle fill="#FFFFFF" cx="92.9" cy="126.3" r="3.9"/>
<circle fill="#FFFFFF" cx="85.7" cy="113.7" r="3.9"/>
<circle fill="#FFFFFF" cx="85.7" cy="138.9" r="3.9"/>
<circle fill="#FFFFFF" cx="102.7" cy="126.3" r="2.1"/>
<circle fill="#FFFFFF" cx="98.3" cy="114.3" r="2.7"/>
<circle fill="#FFFFFF" cx="98.3" cy="138.2" r="2.7"/>
<circle fill="#FFFFFF" cx="57" cy="138.9" r="5.1"/>
<circle fill="#FFFFFF" cx="35.5" cy="126.3" r="3.9"/>
<circle fill="#FFFFFF" cx="42.7" cy="113.7" r="3.9"/>
<circle fill="#FFFFFF" cx="42.7" cy="138.9" r="3.9"/>
<circle fill="#FFFFFF" cx="25.7" cy="126.3" r="2.1"/>
<circle fill="#FFFFFF" cx="30.1" cy="114.3" r="2.7"/>
<circle fill="#FFFFFF" cx="30.1" cy="138.2" r="2.7"/>
<circle fill="#FFFFFF" cx="57.4" cy="162.1" r="2.7"/>
<circle fill="#FFFFFF" cx="44.9" cy="160" r="2.1"/>
<circle fill="#FFFFFF" cx="71" cy="162.1" r="2.7"/>
<circle fill="#FFFFFF" cx="64.2" cy="151.4" r="3.9"/>
<circle fill="#FFFFFF" cx="49.8" cy="151.4" r="3.9"/>
<circle fill="#FFFFFF" cx="83.5" cy="160" r="2.1"/>
<circle fill="#FFFFFF" cx="78.6" cy="151.4" r="3.9"/>
<circle fill="#FFFFFF" cx="91.5" cy="150.2" r="2.7"/>
<circle fill="#FFFFFF" cx="36.9" cy="150.2" r="2.7"/>
<circle fill="#FFFFFF" cx="57.4" cy="89.6" r="2.7"/>
<circle fill="#FFFFFF" cx="44.9" cy="91.7" r="2.1"/>
<circle fill="#FFFFFF" cx="71" cy="89.6" r="2.7"/>
<circle fill="#FFFFFF" cx="64.2" cy="100.3" r="3.9"/>
<circle fill="#FFFFFF" cx="83.5" cy="91.7" r="2.1"/>
<circle fill="#FFFFFF" cx="78.6" cy="100.3" r="3.9"/>
<circle fill="#FFFFFF" cx="91.5" cy="101.5" r="2.7"/>
<circle fill="#FFFFFF" cx="49.8" cy="100.3" r="3.9"/>
<circle fill="#FFFFFF" cx="36.9" cy="101.5" r="2.7"/>
<line fill="none" stroke="#FFFFFF" stroke-width="10" stroke-linecap="round" stroke-miterlimit="10" x1="187" y1="166" x2="187" y2="131"/>
<polyline fill="none" stroke="#0071BC" stroke-width="4" stroke-linecap="round" stroke-miterlimit="10" points="187,166 187,56 
	221.5,69.8 191.9,87.3 "/>
</svg>
