<?xml version="1.0" encoding="utf-8"?>
<!-- Generator: Adobe Illustrator 18.1.1, SVG Export Plug-In . SVG Version: 6.00 Build 0)  -->
<svg version="1.1" xmlns="http://www.w3.org/2000/svg" xmlns:xlink="http://www.w3.org/1999/xlink" x="0px" y="0px"
	 viewBox="0 0 100 100" enable-background="new 0 0 100 100" xml:space="preserve">
<g id="Layer_1">
	<g>
		<path fill="#FFFFFF" d="M21.7,19.9c0,0-4.4,3.8-4,5.9c0.3,2.1-0.6,2.8-0.6,2.8"/>
		<g>
			<g>
				<path fill="#FCCCB9" d="M20.9,19l1.6,1.9c0,0-0.1,0.1-0.2,0.2c-0.1,0.1-0.3,0.3-0.6,0.5c-0.5,0.4-1.1,1.1-1.6,1.7
					c-0.5,0.6-1,1.3-1.1,1.8c-0.2,0.5-0.1,0.5-0.1,0.5c-0.1-0.3-0.2,0.9-0.6,1.7c-0.2,0.4-0.5,0.8-0.8,1c-0.3,0.2-0.5,0.2-0.4,0.2
					c0,0,0.1-0.2,0.1-0.4c0-0.3,0-0.6-0.1-1c-0.1-0.3-0.3-0.7-0.4-0.9c0-0.1-0.1-0.1-0.1-0.2c0,0-0.1-0.2-0.1-0.2
					c0-0.2-0.1-0.2-0.1-0.2c0,0,0-0.2,0-0.5c0-0.3,0.2-0.7,0.3-1.1c0.3-0.8,0.9-1.6,1.5-2.3c0.6-0.7,1.2-1.4,1.7-1.9
					c0.3-0.2,0.5-0.4,0.6-0.6C20.8,19.1,20.9,19,20.9,19z"/>
			</g>
		</g>
	</g>
	<g>
		<path fill="#FFFFFF" d="M23.7,57.3c0,0,0.1,11.1,3.5,7.3"/>
		<g>
			<g>
				<path fill="#FCCCB9" d="M22.4,57.3l2.5,0c0,0,0,0.4,0,1.1c0,0.7,0.1,1.5,0.2,2.4c0.1,0.9,0.3,1.7,0.4,2.2
					c0.2,0.6,0.3,0.9,0.3,0.9c0,0,0,0.2-0.1,0.3c-0.1,0.1-0.1,0.4,0.1,0.6c0.4,0.4,1.4-0.1,1.3-0.1c0,0-0.1,0.2-0.3,0.5
					c-0.2,0.3-0.6,0.8-1.3,0.9c-0.6,0.1-1.2-0.3-1.6-0.7c-0.1-0.1-0.2-0.2-0.2-0.3c-0.1-0.1-0.1-0.1-0.1-0.2
					c-0.1-0.1-0.1-0.1-0.1-0.1s-0.2-0.5-0.4-1.2c-0.2-0.7-0.4-1.6-0.5-2.6c-0.1-0.9-0.2-1.8-0.2-2.5C22.4,57.7,22.4,57.3,22.4,57.3z
					"/>
			</g>
		</g>
	</g>
	<g>
		<path fill="#FFFFFF" d="M63.8,44.2c0,0,1.7,5.8,3.9,7.3"/>
		<g>
			<g>
				<path fill="#FCCCB9" d="M62.6,44.6l2.4-0.7c0,0,0.1,0.3,0.3,0.8c0.2,0.5,0.4,1.2,0.7,1.8c0.5,1.3,1.2,2.4,1.2,2.4s0,0.7,0.1,1.3
					c0,0.3,0.1,0.7,0.2,0.9c0.1,0.3,0.2,0.4,0.2,0.4s-0.2-0.1-0.4-0.1c-0.3-0.1-0.6-0.3-0.9-0.5c-0.7-0.4-1.3-0.9-1.3-0.9
					s-0.2-0.3-0.5-0.8c-0.3-0.5-0.6-1.2-0.9-1.9c-0.3-0.7-0.5-1.4-0.7-1.9C62.7,45,62.6,44.6,62.6,44.6z"/>
			</g>
		</g>
	</g>
	<g>
		<path fill="#FFFFFF" d="M60.7,90.4c0,0-2.8,4.5-2.5,0.8"/>
		<g>
			<g>
				<path fill="#FCCCB9" d="M59.6,89.8l2.1,1.3c0,0-0.1,0.2-0.3,0.5c-0.2,0.3-0.5,0.6-0.8,1c-0.3,0.4-0.6,0.7-1.2,1.1
					c-0.3,0.2-0.7,0.3-1.2,0.2c-0.5-0.1-0.7-0.3-0.7-0.3c0,0-0.1-0.1-0.2-0.2c0-0.1-0.1-0.2-0.1-0.3c0-0.1,0-0.2,0-0.3
					c0-0.3,0.1-0.6,0.3-0.9c0.3-0.5,0.7-0.8,0.7-0.8s0.3,0.4,0.6,0.7C58.9,92,59,92,59,92.1c0,0,0.1,0,0.1,0
					c-0.2,0.1-0.2,0.1-0.3,0.1c-0.2,0.1-0.2,0.1-0.3,0.2c0,0,0,0,0,0c0,0,0,0,0-0.1c0,0,0-0.1,0-0.1c0-0.1,0-0.1-0.1-0.2
					c0-0.1-0.1-0.2-0.1-0.3c0-0.1-0.1-0.1-0.1-0.2c-0.1-0.1,0-0.1,0-0.1c0,0,0.3-0.3,0.5-0.5C59.2,90.4,59.6,89.8,59.6,89.8z"/>
			</g>
		</g>
	</g>
	<g>
		<path fill="#FFFFFF" d="M83.9,9.9c0,0,4.3-0.9,7.3,0.6"/>
		<g>
			<g>
				<path fill="#FCCCB9" d="M84.2,11.1l-0.5-2.4c0,0,0.4-0.1,0.9-0.1c0.5-0.1,1.2-0.1,1.9-0.2c0.7,0,1.4,0,1.9,0.1
					c0.5,0.1,0.9,0.1,0.9,0.1s0.6,0.4,1,1c0.2,0.3,0.4,0.5,0.6,0.7c0.1,0.2,0.2,0.3,0.2,0.3s-0.6,0-1.2,0.1
					c-0.6,0.1-1.1,0.3-1.1,0.3s-0.3,0-0.7-0.1c-0.4,0-1-0.1-1.6-0.1C85.3,10.9,84.1,11.1,84.2,11.1z"/>
			</g>
		</g>
	</g>
	<g>
		<path fill="#FFFFFF" d="M44.1,19.9c0,0,7.4-2.5,9.4,0"/>
		<g>
			<g>
				<path fill="#FCCCB9" d="M44.5,21.1l-0.8-2.4c0,0,0.1,0,0.3-0.1c0.2-0.1,0.5-0.1,0.8-0.2c0.7-0.2,1.5-0.4,2.4-0.6
					c0.9-0.2,1.8-0.3,2.5-0.3c0.7,0,1.2,0,1.2,0s0.9,0.4,1.5,1c0.2,0.1,0.3,0.3,0.5,0.5c0.1,0.2,0.2,0.3,0.3,0.5
					c0.1,0.3,0.2,0.5,0.2,0.5s-0.2-0.1-0.4-0.2c-0.1-0.1-0.3-0.1-0.5-0.1c-0.2,0-0.3,0-0.5,0c-0.7,0-1.4,0.3-1.4,0.3s-0.1,0-0.2,0
					c-0.2,0-0.4,0-0.7,0c-0.6,0-1.4,0.1-2.1,0.3c-0.8,0.1-1.6,0.3-2.2,0.5c-0.3,0.1-0.5,0.2-0.7,0.2C44.6,21.1,44.5,21.1,44.5,21.1z
					"/>
			</g>
		</g>
	</g>
</g>
<g id="Layer_2">
	<g>
		<path fill="#FFFFFF" d="M34.4,80.6c0,0,4.4-3.6,7.9-2.9"/>
		<g>
			<g>
				<path fill="#BBDFC3" d="M35.2,81.6l-1.6-1.9c0,0,0.3-0.3,0.8-0.6c0.5-0.3,1.2-0.8,1.9-1.2c0.7-0.4,1.5-0.7,2.1-0.9
					c0.6-0.2,1-0.3,1-0.3s0.8,0.2,1.5,0.5c0.4,0.2,0.7,0.3,0.9,0.5c0.2,0.2,0.4,0.3,0.4,0.3s-0.7,0.2-1.3,0.5
					c-0.6,0.3-1.1,0.7-1.1,0.7s-0.3,0.1-0.8,0.2c-0.5,0.2-1.1,0.4-1.7,0.8c-0.6,0.3-1.2,0.7-1.6,1C35.4,81.4,35.2,81.6,35.2,81.6z"
					/>
			</g>
		</g>
	</g>
	<g>
		<path fill="#FFFFFF" d="M83.9,89.2c-0.5-3.9,3.2-5.2,3.6-2.2c0.4,3-1.8,1-1.8,1"/>
		<g>
			<g>
				<path fill="#BBDFC3" d="M85.2,89l-2.5,0.3c0,0,0-0.1,0-0.4c0-0.2,0-0.6,0-1.1c0.1-0.9,0.4-2.2,1.6-3.1c0.6-0.4,1.4-0.8,2.3-0.6
					c0.9,0.1,1.5,0.8,1.8,1.3c0.1,0.3,0.2,0.5,0.3,0.7c0,0.2,0.1,0.4,0.1,0.5c0.1,0.3,0.1,0.4,0.1,0.4c0,0,0,0.2-0.2,0.7
					c0,0.1-0.1,0.2-0.1,0.3c-0.1,0.1-0.1,0.3-0.2,0.4c-0.1,0.2-0.2,0.3-0.4,0.4c-0.2,0.2-0.4,0.3-0.6,0.3c-0.4,0-0.7-0.2-0.9-0.3
					c-0.2-0.2-0.3-0.3-0.4-0.5c-0.2-0.3-0.3-0.5-0.3-0.5s0.2,0.1,0.5,0.2c0.1,0,0.3,0.1,0.5,0c0.1,0,0.1,0,0.2-0.1c0,0,0-0.1,0,0
					c0,0,0,0.1,0,0.1c0,0,0,0,0,0c0,0,0,0,0,0c0,0-0.1,0-0.1-0.1c-0.1-0.1-0.1-0.1-0.1-0.1c0,0,0,0,0-0.1c-0.1-0.1-0.1-0.2-0.2-0.3
					c-0.1-0.2-0.2-0.4-0.2-0.4c0,0,0-0.1,0-0.2c0-0.1-0.1-0.3-0.1-0.4c-0.1-0.1-0.1-0.1-0.1-0.1c0,0-0.2,0-0.3,0.2
					c-0.4,0.3-0.6,0.9-0.6,1.4C85.1,88.6,85.2,89,85.2,89z"/>
			</g>
		</g>
	</g>
	<g>
		<path fill="#FFFFFF" d="M34.4,37c0,0-6.1-2.6-9,0"/>
		<g>
			<g>
				<path fill="#BBDFC3" d="M34.9,35.8l-1,2.3c0,0-0.3-0.1-0.9-0.3c-0.5-0.2-1.3-0.4-2-0.5c-0.7-0.1-1.5-0.2-2-0.2
					c-0.5,0-0.9,0-0.9,0s-0.6-0.3-1.3-0.4c-0.7-0.1-1.5,0.1-1.5,0.1s0.1-0.2,0.3-0.4c0.2-0.3,0.5-0.6,0.8-0.9
					c0.7-0.6,1.5-0.9,1.5-0.9s0.1,0,0.3,0c0.2,0,0.5,0,0.8,0c0.7,0,1.6,0.1,2.4,0.3c0.9,0.2,1.7,0.4,2.3,0.6
					C34.5,35.7,34.9,35.8,34.9,35.8z"/>
			</g>
		</g>
	</g>
	<g>
		<path fill="#FFFFFF" d="M80.2,36.4c0,0,4.6-5.7,3.6-6.9"/>
		<g>
			<g>
				<path fill="#BBDFC3" d="M81.2,37.2l-1.9-1.6c0,0,0.2-0.3,0.5-0.7c0.3-0.4,0.7-1,1.1-1.5c0.4-0.6,0.8-1.1,1-1.5
					c0.3-0.4,0.4-0.7,0.4-0.7s0.6-0.3,1.1-0.7c0.2-0.2,0.5-0.4,0.6-0.6c0.1-0.2,0-0.4,0-0.4c0,0,0.2,0.1,0.3,0.4
					c0.1,0.3,0.2,0.7,0.2,1.1c0,0.8-0.1,1.5-0.1,1.5s-0.2,0.3-0.5,0.8c-0.3,0.5-0.7,1.1-1.1,1.7c-0.4,0.6-0.8,1.2-1.2,1.6
					C81.4,36.9,81.2,37.2,81.2,37.2z"/>
			</g>
		</g>
	</g>
	<g>
		<path fill="#FFFFFF" d="M6.5,90.4c0,0,0.8-3.2,1.6-1.3c0.8,2,1.8,0.3,1.8,0.3"/>
		<g>
			<g>
				<path fill="#BBDFC3" d="M7.7,90.7l-2.4-0.6c0,0,0.1-0.3,0.2-0.7c0.1-0.2,0.2-0.4,0.3-0.7c0.2-0.3,0.2-0.6,0.8-1
					c0.1-0.1,0.1-0.1,0.2-0.2c0.1-0.1,0.3-0.1,0.4-0.2c0.2-0.1,0.7-0.1,1,0c0.2,0.1,0.4,0.2,0.6,0.4c0.1,0.1,0.2,0.2,0.2,0.3
					c0.2,0.4,0.3,0.7,0.4,0.7c0,0.1,0.1,0.1,0.1,0.2c0,0,0,0,0,0c0,0-0.2,0.2-0.3,0.4c0,0,0,0.1,0,0.1c0,0,0,0,0,0c0,0,0-0.1,0-0.1
					c0,0,0,0.1,0.1,0.1c0.4,0.2,1,0,1,0c0,0,0,0.1-0.1,0.4c-0.1,0.2-0.1,0.5-0.5,0.8c-0.3,0.3-1,0.4-1.4,0.2
					c-0.4-0.1-0.6-0.3-0.6-0.3s-0.1-0.1-0.2-0.2c-0.1-0.1-0.2-0.4-0.3-0.6c0-0.1-0.1-0.2-0.1-0.3l0-0.1c0,0,0,0,0,0l0,0l0,0l0.1,0
					c0.1-0.1,0.2-0.1,0.2-0.2c0.1-0.1,0.2-0.2,0.2-0.2c0,0,0.1-0.1,0.1-0.1c0-0.1,0-0.1,0-0.1c0,0,0,0,0,0c0,0,0,0.1,0,0.1
					c0,0.1,0,0,0.1,0.1c0,0.1,0.1,0.1,0.2,0.2c0.1,0.1,0.1,0.1,0.2,0.2l0.1,0.1l0,0c0,0,0,0,0,0c0,0-0.1,0.1-0.1,0.2
					c-0.1,0.2-0.1,0.3-0.2,0.5C7.8,90.5,7.7,90.8,7.7,90.7z"/>
			</g>
		</g>
	</g>
</g>
<g id="Layer_3">
	<g>
		<path fill="#FFFFFF" d="M19.4,8.6c0,0,1.4,1.6,2.3,1.8c0.9,0.2,1.7,1.6,2,2.3"/>
		<g>
			<g>
				<path fill="#F9C7DD" d="M18.5,9.4l1.9-1.6c0,0,0.7,0.8,1.3,1.3C21.8,9.2,22,9.3,22,9.3c0,0,0,0,0,0.1l0,0l0,0l0,0l0,0
					c0,0.1,0-0.2,0-0.1l0,0l0.2,0.1c0.1,0,0.2,0.1,0.3,0.1c0.2,0.1,0.3,0.2,0.5,0.3c0.5,0.4,0.7,0.6,0.7,0.6s0,0.2,0.1,0.4
					c0,0.2,0,0.6,0,0.9c0,0.6-0.2,1.2-0.2,1.2s-0.4-0.3-0.9-0.5C22.2,12,21.8,12,21.8,12s-0.1-0.1-0.3-0.3c0,0-0.1,0-0.1,0
					c-0.1,0,0.1,0-0.2-0.1c-0.4-0.2-0.7-0.3-1-0.5C19.2,10.3,18.5,9.5,18.5,9.4z"/>
			</g>
		</g>
	</g>
	<g>
		<path fill="#FFFFFF" d="M44.1,61.3c0,0,2.9-5.3,3.6-0.9c0.7,4.4-0.7,0.9-0.7,0.9"/>
		<g>
			<g>
				<path fill="#F9C7DD" d="M45.2,61.9L43,60.7c0,0,0.2-0.4,0.6-1c0.2-0.3,0.4-0.6,0.8-1c0.1-0.1,0.1-0.2,0.3-0.3
					c0.1-0.1,0.3-0.3,0.5-0.4c0.3-0.2,0.7-0.4,1-0.5c0.7-0.2,1.5,0.1,2,0.7c0.5,0.5,0.6,1.5,0.7,1.8c0.1,0.4,0.1,0.6,0.1,0.8
					c0,0.2,0,0.3,0,0.3s-0.1,0.2-0.2,0.5c-0.1,0.2-0.1,0.4-0.2,0.6c0,0.1-0.1,0.3-0.2,0.4l-0.1,0.1c0,0.1,0,0.1-0.1,0.2
					c-0.1,0.1-0.1,0.1-0.2,0.1c-0.1,0.1-0.2,0.1-0.3,0.1c-0.1,0-0.2,0-0.3,0c0,0-0.1-0.1-0.1-0.1c-0.2-0.2-0.2-0.3-0.2-0.4
					c0-0.1,0-0.2,0-0.3c0-0.2,0-0.4,0-0.5c0-0.3,0-0.5,0-0.5s0.1,0.1,0.3,0.4c0.1,0.1,0.2,0.2,0.4,0.3c0.1,0.1,0.1,0.1,0.2,0.1
					c0,0,0.1,0,0.1,0c-0.2,0.2-0.3,0.3-0.3,0.4c0,0.1,0-0.1-0.2-0.1L47,62.3c0,0-0.1-0.1-0.1-0.2c-0.1-0.1-0.1-0.3-0.2-0.4
					c-0.1-0.2-0.2-0.4-0.2-0.4c0,0-0.1-0.4-0.1-0.9c0,0,0-0.1,0-0.1c0,0-0.1,0.1-0.1,0.1c-0.2,0.2-0.4,0.5-0.6,0.7
					C45.3,61.6,45.1,61.9,45.2,61.9z"/>
			</g>
		</g>
	</g>
	<g>
		<path fill="#FFFFFF" d="M6.5,51.5c0,0,1.7-4.4,4.3-3.6"/>
		<g>
			<g>
				<path fill="#F9C7DD" d="M7.7,52L5.3,51c0,0,0.5-1.1,1.2-2.1c0.3-0.5,0.8-1,1.2-1.3c0.2-0.2,0.4-0.3,0.5-0.4
					c0.1-0.1,0.2-0.1,0.2-0.1s0.8-0.1,1.4,0.2c0.3,0.2,0.6,0.3,0.7,0.5c0.2,0.2,0.2,0.3,0.2,0.3s-0.5,0.2-0.8,0.5
					c-0.1,0.2-0.2,0.3-0.3,0.5c0,0.1-0.1,0.2-0.1,0.2c0,0-0.1,0.1-0.3,0.3c-0.2,0.2-0.5,0.5-0.7,0.9C8,51.1,7.6,52,7.7,52z"/>
			</g>
		</g>
	</g>
	<g>
		<path fill="#FFFFFF" d="M79.1,69c0,0,2.4-5.6,3.9-4.7"/>
		<g>
			<g>
				<path fill="#F9C7DD" d="M80.2,69.5l-2.3-1c0,0,0.1-0.3,0.3-0.7c0.2-0.4,0.5-0.9,0.8-1.5c0.3-0.5,0.6-1.1,0.9-1.4
					c0.3-0.4,0.5-0.7,0.5-0.7s0.6-0.3,1.4-0.3c0.4,0,0.8,0,0.9,0.2c0.2,0.2,0.2,0.3,0.2,0.3c0,0-0.1,0-0.3,0.1
					c-0.1,0.1-0.2,0.3-0.2,0.5c-0.1,0.4-0.2,0.9-0.2,0.9s-0.1,0.2-0.4,0.5c-0.2,0.3-0.5,0.7-0.7,1.2c-0.3,0.5-0.5,0.9-0.7,1.3
					C80.3,69.3,80.2,69.5,80.2,69.5z"/>
			</g>
		</g>
	</g>
</g>
</svg>
