<?xml version="1.0" encoding="utf-8"?>
<!-- Generator: Adobe Illustrator 18.1.1, SVG Export Plug-In . SVG Version: 6.00 Build 0)  -->
<svg version="1.1" id="Layer_1" xmlns="http://www.w3.org/2000/svg" xmlns:xlink="http://www.w3.org/1999/xlink" x="0px" y="0px"
	 viewBox="0 0 250 250" enable-background="new 0 0 250 250" xml:space="preserve">
<rect x="21.9" y="162.4" fill="none" width="201.1" height="85"/>
<text transform="matrix(1 0 0 1 22.7153 186.1286)"><tspan x="0" y="0" fill="#0071BC" font-family="'TrajanPro-Bold'" font-size="37">Spurlock</tspan><tspan x="14.6" y="44.4" fill="#0071BC" font-family="'TrajanPro-Bold'" font-size="37">Museum</tspan></text>
<rect x="79" y="22.1" fill="#FFFFFF" stroke="#0071BC" stroke-width="7.8063" width="87" height="116"/>
<g>
	<path fill="#0071BC" d="M143.5,121.7v-6.1c-8.5-1.3-13.6-4-13.7-26.2V68.4c0-20.9,3.7-22.3,11.9-23.9v-5.4H107
		c-2.7,0-4.9,0.7-6.4,2.1c-1.2,1.2-1.9,2.8-1.9,4.6c0,1.7,0.6,3.2,1.7,4.3c1.1,1,2.5,1.5,3.8,1.4c2.1-0.2,4.3-1.7,4.7-4.2
		c0.2-1.4-0.3-2.3-0.7-2.8c-0.6-0.7-1.4-1.1-2.3-1.2c-1.1-0.1-2.1,0.4-2.7,1.2c-0.5,0.7-0.6,1.5-0.3,2.3c0.2,0.5,0.8,0.8,1.3,0.6
		c0.5-0.2,0.8-0.8,0.6-1.3c0-0.1,0-0.2,0.1-0.3c0.1-0.1,0.3-0.4,0.9-0.3c0.3,0,0.7,0.2,0.9,0.4c0.3,0.3,0.4,0.8,0.3,1.3
		c-0.2,1.5-1.5,2.4-2.8,2.5c-0.8,0.1-1.7-0.3-2.3-0.9c-0.5-0.5-1.1-1.4-1.1-2.8c0-1.3,0.5-2.4,1.3-3.2c1.1-1.1,2.8-1.6,4.9-1.6
		c0,0,12.4,0,15.7,0v2.2h-10.9c-0.7,0-1.2,0.5-1.2,1.2c0,0.7,0.5,1.2,1.2,1.2h10.9v2h-10.3l0,0c-0.6,0-1,0.4-1,1c0,0.6,0.4,1,1,1
		h10.3v62h-17.4c-0.6,0-1.1,0.5-1.1,1.1c0,0.6,0.5,1.1,1.1,1.1h17.4v2.7h-20.8c-1.4,0-2.5,1.1-2.5,2.5l0,2.5H143.5z"/>
	<path fill="#0071BC" d="M114.7,107.9V53.7c0-0.6-0.5-1-1-1c-0.6,0-1,0.4-1,1v54.2c0,0.6,0.5,1,1,1
		C114.3,108.9,114.7,108.5,114.7,107.9z"/>
	<path fill="#0071BC" d="M119.9,107.7V53.9c0-0.7-0.6-1.3-1.3-1.3c-0.7,0-1.3,0.6-1.3,1.3v53.8c0,0.7,0.6,1.3,1.3,1.3
		C119.3,109.1,119.9,108.5,119.9,107.7z"/>
</g>
</svg>
