<?xml version="1.0" encoding="utf-8"?>
<!-- Generator: Adobe Illustrator 18.1.1, SVG Export Plug-In . SVG Version: 6.00 Build 0)  -->
<svg version="1.1" id="Layer_1" xmlns="http://www.w3.org/2000/svg" xmlns:xlink="http://www.w3.org/1999/xlink" x="0px" y="0px"
	 viewBox="0 0 250 250" enable-background="new 0 0 250 250" xml:space="preserve">
<g id="g3014">
	<g id="g3020" transform="translate(61.4912,609.1372)">
		<path id="path3022" fill="#0071BC" d="M-10-440.6c1.6,0,3.2,0.4,4,1.2c0.1,1.2-0.9,3.1-1.6,3.1c-0.8-0.3-1.6-0.5-2.5-0.5
			c-3.9,0-5.8,4-5.8,8c0,2.5,0.9,4,2.8,4c2.1,0,4.3-1.4,5.5-2.5c0.3,0.2,0.7,0.9,0.7,1.7c0,0.9-0.3,1.7-1,2.5
			c-1.4,1.4-3.7,2.5-7.1,2.5c-3.9,0-6.5-2.2-6.5-7.3C-21.7-434.6-17.3-440.6-10-440.6L-10-440.6z"/>
	</g>
	<g id="g3024" transform="translate(75.6021,591.6636)">
		<path id="path3026" fill="#0071BC" d="M-11.5-407.5c2.1,0,5.9-3.7,7-10.8c0-0.4,0.1-0.6,0.2-1c-0.5-0.2-1.1-0.3-1.8-0.3
			c-1.6,0-3.2,0.5-4.7,2.5c-1.5,2.1-2.2,4.7-2.2,6.8C-12.9-408.4-12.4-407.5-11.5-407.5L-11.5-407.5z M-18.4-409.4
			c0-2.5,0.9-7,4.1-10.2c2.8-2.8,6.1-3.5,9.2-3.5c2,0,4.8,0.6,6.5,1c-0.4,1.9-1.5,9-1.9,13.2c-0.2,1.8-0.3,4.2-0.2,5.1
			c-1.4,0.6-4.1,0.8-4.8,0.8c-0.4,0-0.5-1.8-0.3-3.4c0-0.6,0.1-1.4,0.2-1.7c-1.7,2.8-5,5.2-8.5,5.2
			C-16.8-403.1-18.4-405.1-18.4-409.4C-18.4-409.3-18.4-409.4-18.4-409.4z"/>
	</g>
	<g id="g3028" transform="translate(101.8579,609.1372)">
		<path id="path3030" fill="#0071BC" d="M-14.2-440.6c1.8,0,3.4,0.6,4.2,1.5c0,1.2-1,3.2-2.5,2.7c-0.6-0.2-1.3-0.4-2.2-0.4
			c-1.2,0-2.2,0.5-2.2,1.6c0,0.8,0.6,1.4,3.5,3.4c2.1,1.5,2.9,2.8,2.9,4.7c0,3.1-3,6.5-8.1,6.5c-2.1,0-4-0.8-4.6-1.7
			c-0.8-1.3-0.2-3.8,0.7-3.4c1.1,0.6,3,1.2,4.5,1.2c1.4,0,2.3-0.6,2.3-1.5c0-0.7-0.6-1.4-3.3-3.2c-2.2-1.6-2.9-3.1-2.9-4.9
			C-21.8-437.6-18.7-440.6-14.2-440.6L-14.2-440.6z"/>
	</g>
	<g id="g3032" transform="translate(118.417,609.1372)">
		<path id="path3034" fill="#0071BC" d="M-16-440.6c1.8,0,3.4,0.6,4.2,1.5c0,1.2-1,3.2-2.5,2.7c-0.6-0.2-1.3-0.4-2.2-0.4
			c-1.2,0-2.2,0.5-2.2,1.6c0,0.8,0.6,1.4,3.5,3.4c2.1,1.5,2.9,2.8,2.9,4.7c0,3.1-3,6.5-8.1,6.5c-2.1,0-4-0.8-4.6-1.7
			c-0.8-1.3-0.2-3.8,0.7-3.4c1.1,0.6,3,1.2,4.5,1.2c1.4,0,2.3-0.6,2.3-1.5c0-0.7-0.6-1.4-3.3-3.2c-2.2-1.6-2.9-3.1-2.9-4.9
			C-23.5-437.6-20.5-440.6-16-440.6L-16-440.6z"/>
	</g>
	<g id="g3036" transform="translate(133.5361,591.6636)">
		<path id="path3038" fill="#0071BC" d="M-17.5-407.5c2.1,0,5.9-3.7,7-10.8c0-0.4,0.1-0.6,0.2-1c-0.5-0.2-1.1-0.3-1.8-0.3
			c-1.6,0-3.2,0.5-4.7,2.5c-1.5,2.1-2.2,4.7-2.2,6.8C-18.9-408.4-18.4-407.5-17.5-407.5L-17.5-407.5z M-24.5-409.4
			c0-2.5,0.9-7,4.1-10.2c2.8-2.8,6.1-3.5,9.2-3.5c2,0,4.8,0.6,6.5,1c-0.4,1.9-1.5,9-1.9,13.2c-0.2,1.8-0.3,4.2-0.2,5.1
			c-1.4,0.6-4.1,0.8-4.8,0.8c-0.4,0-0.5-1.8-0.3-3.4c0-0.6,0.1-1.4,0.2-1.7c-1.7,2.8-5,5.2-8.5,5.2
			C-22.8-403.1-24.5-405.1-24.5-409.4C-24.5-409.3-24.5-409.4-24.5-409.4z"/>
	</g>
	<g id="g3040" transform="translate(158.688,602.897)">
		<path id="path3042" fill="#0071BC" d="M-20.1-428.8c2-3.2,4.6-5.6,8.2-5.6c3.1,0,4,2.8,3.5,6.9c-0.3,1.9-0.8,4.6-1.2,7.1
			c-0.3,2.1-0.5,4-0.5,5.3c-1.1,0.6-4.4,0.8-5.1,0.8c-0.3,0-0.3-2.4,0-4.9c0.3-2.1,1.1-5.8,1.4-8c0.2-1.2,0.2-2.8-1-2.8
			c-1.6,0-5.4,2.5-7.3,12.9c-0.1,0.9-0.5,1.4-0.9,1.7c-0.6,0.4-2,0.7-4.8,0.8c0.5-2.6,1.3-8,1.9-12c0.6-3.6,0.8-5.9,0.6-6.8
			c0.7-0.3,4.6-1.1,5-1.1c0.5,0,0.6,1.3,0.1,4.6c0,0.3-0.1,0.8-0.1,1H-20.1z"/>
	</g>
	<g id="g3044" transform="translate(183.0728,591.7114)">
		<path id="path3046" fill="#0071BC" d="M-22.7-407.5c1.9,0,5.7-3.5,6.8-9.8c0-0.3,0.2-1,0.3-1.4c-0.6-0.5-1.3-0.9-2.5-0.9
			c-4.3,0-6.3,5.2-6.3,8.9C-24.4-408.6-23.7-407.5-22.7-407.5L-22.7-407.5z M-25.5-403.1c-2.8,0-4.5-2.5-4.5-6.7
			c0-7,4.3-13.4,11.7-13.4c1.3,0,2.5,0.3,3.2,0.8c0.4-2,1.3-8.1,1.3-9.9c1.2-0.2,3.8-0.6,4.9-0.6c0.5,0,0.6,0.5,0.4,1.5
			c-1,6.5-2.9,18.8-3.2,21.6c-0.3,2.3-0.3,4.6-0.3,5.9c-1.4,0.6-4.2,0.7-4.9,0.7c-0.3,0-0.5-2-0.4-3.7c0-0.6,0.1-1.4,0.1-1.5
			C-19.2-404.8-22.2-403.1-25.5-403.1L-25.5-403.1z"/>
	</g>
	<g id="g3048" transform="translate(208.0317,602.2241)">
		<path id="path3050" fill="#0071BC" d="M-25.3-427.5c2.3-5.1,5-6.2,6.8-6.2c0.6,0,1.4,0.3,1.8,0.8c0.2,1.4-0.9,4.3-1.9,5.3
			c-0.5-0.3-1.2-0.5-1.9-0.5c-1.5,0-4.3,2.3-6.1,12.1c-0.1,0.8-0.4,1.2-0.9,1.4c-0.7,0.4-3.6,0.8-5,0.8c0.6-3.5,1.8-10.7,2.2-14.9
			c0.1-1.1,0.2-3.1,0.1-3.8c0.8-0.4,4-1.1,4.8-1.1c0.4,0,0.7,2.4,0.1,6.2H-25.3z"/>
	</g>
	<g id="g3052" transform="translate(224.9751,591.6636)">
		<path id="path3054" fill="#0071BC" d="M-27.1-407.5c2.1,0,5.9-3.7,7-10.8c0-0.4,0.1-0.6,0.2-1c-0.5-0.2-1.1-0.3-1.8-0.3
			c-1.6,0-3.2,0.5-4.7,2.5c-1.5,2.1-2.2,4.7-2.2,6.8C-28.5-408.4-28-407.5-27.1-407.5L-27.1-407.5z M-34-409.4c0-2.5,0.9-7,4.1-10.2
			c2.8-2.8,6.1-3.5,9.2-3.5c2,0,4.8,0.6,6.5,1c-0.4,1.9-1.5,9-1.9,13.2c-0.2,1.8-0.3,4.2-0.2,5.1c-1.4,0.6-4.1,0.8-4.8,0.8
			c-0.4,0-0.5-1.8-0.3-3.4c0-0.6,0.1-1.4,0.2-1.7c-1.7,2.8-5,5.2-8.5,5.2C-32.3-403.1-34-405.1-34-409.4
			C-34-409.3-34-409.4-34-409.4z"/>
	</g>
</g>
<g id="g2830">
	<g id="g2836" transform="translate(210.8784,690.4834)">
		<path id="path2838" fill="#BBE6FB" d="M-25.6-594.8c1.4,16.5-24.6,32.3-58.1,35.1s-61.8-8.2-63.2-24.7
			c-1.4-16.5,24.6-32.3,58.1-35.1C-55.3-622.4-27-611.3-25.6-594.8"/>
	</g>
</g>
<g id="g2840">
	<g id="g2842">
		<g id="g2850">
		</g>
		<g id="g2848">
			<g id="g2856">
				<defs>
					<rect id="SVGID_1_" x="82.4" y="72.9" width="79.1" height="55.7"/>
				</defs>
				<clipPath id="SVGID_2_">
					<use xlink:href="#SVGID_1_"  overflow="visible"/>
				</clipPath>
				<g id="g2858" opacity="0.35" clip-path="url(#SVGID_2_)">
					<g id="g2860" transform="translate(141.3843,715.9233)">
						<path id="path2862" fill="#FFFFFF" d="M-18.3-643c-12.8-0.2-27.7,4.9-38.9,9.6c-1.2,3.3-1.8,6.9-1.8,10.6
							c0,19.6,17.7,35.5,39.5,35.5s39.5-15.9,39.5-35.5c0-6.2-1.8-12-4.9-17.1C6.3-641.3-5.9-642.8-18.3-643"/>
					</g>
				</g>
			</g>
		</g>
	</g>
</g>
<g id="g2866">
	<g id="g2872" transform="translate(140.1528,715.9277)">
		<path id="path2874" fill="#FFFFFF" d="M-18.2-643c-7.1-0.4-19.3,3.3-29.4,6.9c-1.5,3.6-2.4,7.6-2.4,11.8
			c0,17.2,15.6,31.1,32.1,31.1c16.4,0,30.9-13.9,32.1-31.1c0.4-5.6-1.5-10.9-4.2-15.4C-0.7-641.5-11.9-642.7-18.2-643"/>
	</g>
</g>
<g id="g2878">
	<g id="g2884" transform="translate(119.8818,697.4946)">
		<path id="path2886" fill="#373535" d="M-16.1-608.1c0.9-1.9,2.2-2.9,3.5-4.5c-0.1-0.4-0.5-1.6-0.5-2.1c0-1.9,1.6-3.5,3.5-3.5
			c0.5,0,0.9,0.1,1.3,0.2c5.8-4.4,13.4-6.3,21.1-4.6c0.7,0.2,1.4,0.3,2.1,0.6c-7.6-1-16.1,1.6-21.9,6.3c0.2,0.4,0.7,1.6,0.7,2.1
			c0,1.9-1.3,2.4-3.2,2.4c-0.4,0-0.9-0.1-1.2-0.2c-1.3,1.8-2.9,5.1-3.7,7.2c3.2,2.9,6.1,3.9,9.9,5.3c0-0.2,0.1-0.3,0.1-0.5
			c0-5.8,5.1-10.6,11-10.6c5.2,0,9.5,3.8,10.4,8.8c2.6-1.7,5.1-2.9,7-5.4c-0.4-0.5-0.9-2.1-0.9-2.9c0-1.8,1.4-3.2,3.2-3.2
			c0.2,0,0.5,0,0.7,0.1c1-2,1.7-4.1,2.2-6.3c-9.1-6.7-26.7-5.8-26.7-5.8s-14-0.7-23.5,3.9C-20.6-616.1-18.8-611.8-16.1-608.1"/>
	</g>
	<g id="g2888" transform="translate(168.4907,700.4282)">
		<path id="path2890" fill="#373535" d="M-21.2-613.7c0.6,0.6,1,1.1,1.3,1.6c0.9,1.5-0.9,2.9-2.6,2.9c-0.2,0-0.4,0-0.5-0.1
			c-2,3.1-5.4,7-8.5,9c4.7,0.8,9.2,2.7,12.7,5.6c2.6-4.6,4.6-11.3,4.6-16.9c0-4.3-1.9-7.5-4.8-9.8C-19.2-619-20.4-615.8-21.2-613.7"
			/>
	</g>
	<g id="g2892" transform="translate(125.7842,667.8032)">
		<path id="path2894" fill="#373535" d="M-16.7-551.8c1.6-4.3,5.4-7.7,9.1-10.7c-0.5-0.7-1.3-2.5-1.7-3.4c-4.5-1.4-8.4-3.9-11.5-7.3
			c0,0.1-0.1,0.2-0.1,0.3c-0.6,2.6-0.7,5.2-0.4,7.7c2.1,0.4,3.7,2.3,3.7,4.5c0,1.3-1.2,3.3-2.1,4.1
			C-18.6-554.4-17.9-553.3-16.7-551.8"/>
	</g>
	<g id="g2896" transform="translate(125.4756,663.7393)">
		<path id="path2898" fill="#373535" d="M-16.7-544.1c-1.9-1.9-3.2-5.6-4.4-7.9c-0.2,0-0.5,0.1-0.7,0.1c-2.5,0-5.2-2.1-4.6-4.6
			c0.3-1.4,1.3-2.3,2.8-3c-0.3-2.8-0.4-6.9,0.2-9.8c0.2-0.8,0.6-1.2,0.9-2c-2.8-4.1-4.6-9.5-4.6-14.8c0-0.2,0-0.4,0-0.6
			c-4.7,2.4-8.3,6.1-8.3,12c0,13,7.5,25.8,18.7,30.8C-16.7-544-16.7-544.1-16.7-544.1"/>
	</g>
	<g id="g2900" transform="translate(156.1313,683.8511)">
		<path id="path2902" fill="#373535" d="M-19.9-582.2c-1.4,4.1-5.3,7.1-9.9,7.1c-2.5,0-4.7-0.8-6.5-2.3c-3.7,2.9-7.1,7.9-8.8,12.3
			c0.8,0.8,1.3,1.5,2.2,2.2c2.6,0.7,6.1,0,8.9,0c11.3,0,21.2-5,27-13.8C-10.8-579.3-15.3-581.8-19.9-582.2"/>
	</g>
</g>
<g id="g2906">
	<g id="g2912" transform="translate(119.5596,695.7944)">
		<path id="path2914" fill="#1287B1" d="M-16.1-604.9c0.9-1.9,2-3.7,3.2-5.3c-0.1-0.4-0.2-0.8-0.2-1.2c0-1.9,1.6-3.5,3.5-3.5
			c0.5,0,0.9,0.1,1.3,0.2c5.8-4.4,13.4-6.3,21.1-4.6c0.7,0.2,1.4,0.3,2.1,0.6c-7.6-1-15.4,1.3-21.2,6c0.2,0.4,0.3,0.9,0.3,1.4
			c0,1.9-1.6,3.5-3.5,3.5c-0.4,0-0.9-0.1-1.2-0.2c-1.3,1.8-2.4,3.7-3.2,5.8c2.8,3,6.1,5.3,9.9,6.7c0-0.2,0-0.4,0-0.5
			c0-5.8,4.7-10.5,10.5-10.5c5.2,0,9.5,3.8,10.4,8.8c2.6-1.7,4.9-3.8,6.8-6.2c-0.4-0.5-0.7-1.2-0.7-2c0-1.8,1.4-3.2,3.2-3.2
			c0.2,0,0.5,0,0.7,0.1c1-2,1.7-4.1,2.2-6.3c-9.1-6.7-26.7-5.8-26.7-5.8s-14-0.7-23.5,3.9C-20.6-612.9-18.8-608.6-16.1-604.9"/>
	</g>
	<g id="g2916" transform="translate(169.0396,699.8481)">
		<path id="path2918" fill="#1287B1" d="M-21.2-612.6c0.6,0.6,1.1,1.4,1.1,2.3c0,1.8-1.4,3.2-3.2,3.2c-0.2,0-0.4,0-0.5-0.1
			c-2,3.1-4.6,5.7-7.7,7.7c4.5,0.7,8.8,2.6,12.4,5.6c2.6-4.6,4-9.9,4-15.6c0-4.3-1.9-7.5-4.8-9.8C-20.1-616.9-20.5-614.7-21.2-612.6
			"/>
	</g>
	<g id="g2920" transform="translate(126.3252,666.6401)">
		<path id="path2922" fill="#1287B1" d="M-16.8-549.6c1.6-4.3,4.3-8.2,8-11.2c-0.5-0.7-1-1.5-1.3-2.4c-4.5-1.4-8.4-3.9-11.5-7.3
			c0,0.1-0.1,0.2-0.1,0.3c-0.6,2.6-0.7,5.2-0.4,7.7c2.1,0.4,3.7,2.3,3.7,4.5c0,1.3-0.6,2.5-1.5,3.4C-19-552.8-18-551.1-16.8-549.6"
			/>
	</g>
	<g id="g2924" transform="translate(125.4619,663.7983)">
		<path id="path2926" fill="#1287B1" d="M-16.7-544.2c-1.9-1.9-3.4-4-4.7-6.3c-0.2,0-0.5,0.1-0.7,0.1c-2.5,0-4.6-2.1-4.6-4.6
			c0-1.8,1.1-3.4,2.6-4.1c-0.3-2.8-0.2-5.8,0.4-8.7c0.2-0.8,0.4-1.7,0.7-2.5c-2.8-4.1-4.4-9.1-4.4-14.4c0-0.2,0-0.4,0-0.6
			c-4.7,2.4-8.3,6.1-8.3,12c0,13,7.8,24.2,19,29.3C-16.7-544.1-16.7-544.2-16.7-544.2"/>
	</g>
	<g id="g2928" transform="translate(155.8091,682.1509)">
		<path id="path2930" fill="#1287B1" d="M-19.8-579c-1.4,4.1-5.3,7.1-9.9,7.1c-2.5,0-4.7-0.8-6.5-2.3c-3.7,2.9-6.5,6.8-8.2,11.2
			c0.8,0.8,1.6,1.6,2.4,2.3c2.6,0.7,5.3,1,8.1,1c11.3,0,21.2-5.8,26.9-14.6C-10.9-576.9-15.3-578.6-19.8-579"/>
	</g>
</g>
<g id="g2932">
	<g id="g2934">
		<g id="g2942">
		</g>
		<g id="g2940">
			<g id="g2948">
				<defs>
					<rect id="SVGID_3_" x="105" y="79.7" width="41.1" height="41.1"/>
				</defs>
				<clipPath id="SVGID_4_">
					<use xlink:href="#SVGID_3_"  overflow="visible"/>
				</clipPath>
				<g id="g2950" clip-path="url(#SVGID_4_)">
					<g id="g2952" transform="translate(156.2222,685.187)">
						<path id="path2954" fill="#FFFFFF" d="M-19.9-584.8l9.7-2.3l-9.8-0.5l8-6.1l-9,3.2l6.1-8.5l-8.5,5.6l3-10l-5.8,8.2l-0.1-10.4
							l-3.8,9.2l-3.2-9.3l0.2,11l-5.5-9.9l3,10.5l-9-6.5l7,8.8l-11.1-4.1l8.8,6.5l-11.3,0.3l11.5,3l-11.5,2.5l11.4,0.8l-9.6,6.1
							l9.9-3.6l-6.8,8.7l8.7-7l-3.1,11.6l6.7-9.5l-0.9,11.2l3.8-10.1l3.2,10.7l0.8-10.7l4.8,9.1l-2.8-10.4l8.8,6.8l-5.7-8.7l9.6,3.7
							l-7.4-7.2l9.9,0.8L-19.9-584.8z"/>
					</g>
				</g>
			</g>
		</g>
	</g>
</g>
<g id="g2956">
	<g id="g2958">
		<g id="g2966">
		</g>
		<g id="g2964">
			<g id="g2972">
				<defs>
					<rect id="SVGID_5_" x="32.6" y="63.7" width="190.3" height="55.4"/>
				</defs>
				<clipPath id="SVGID_6_">
					<use xlink:href="#SVGID_5_"  overflow="visible"/>
				</clipPath>
				<g id="g2974" opacity="0.35" clip-path="url(#SVGID_6_)">
					<g id="g2976" transform="translate(40.4033,664.3701)">
						<path id="path2978" fill="#373535" d="M-7.8-545.3c30.2-30.2,54.4-39.6,76.3-43.8c2.9-0.6,3.4-6.9,3.4-6.9s0.4,4.7,2.4,5.3
							c2,0.6,4.7-7.3,4.7-7.3s-2.4,7.1,0,7.5c2.4,0.4,6.9-6.9,6.9-6.9s-1.8,6.3-0.6,6.7c1.2,0.4,7.3-9.1,7.3-9.1s-3.7,6.3-0.2,6.9
							c3.4,0.6,8.5-4.3,8.5-4.3s-4,4.5-2.2,5.1c7.5,2.6,13.6-7.1,13.6-7.1s-1.4,4.3-5.1,8.9c7.9,2,13.8-9.9,13.8-9.9l-5.9,11.9
							c3,1.6,15.2-12.4,15.2-12.4s-6.3,11-9.9,13.2c2,1.6,9.3-4.9,9.3-4.9s-5.9,7.3-3.7,7.7c3.2,2.6,15.2-13.6,15.2-13.6
							s-4.7,9.5-11.6,17c5.8,2.9,20.1-15.6,20.1-15.6s-0.4,5.9-10.8,15.2c7.7-1,17.6-15.6,17.6-15.6s-3.7,11-12.4,18.7
							c7.6-0.8,19.7-19.5,19.7-19.5s-4.7,13-14.2,20.5c10.5,2.3,25.8-13.4,25.8-13.4s-6,11.2-13.8,15.7c8.7,3.3,20.7-10.4,20.7-10.4
							s-12,18.5-31,17.6c-6.3-0.3-25.2-19-65.7-17.4C32.1-583.4,20.8-560.7-7.8-545.3"/>
					</g>
				</g>
			</g>
		</g>
		<g id="g2980" transform="translate(41.7861,666.9326)">
			<path id="path2982" fill="#0071BC" d="M-8-550.2c30.2-30.2,54.4-39.6,76.3-43.8c2.9-0.6,3.4-6.9,3.4-6.9s0.4,4.7,2.4,5.3
				c2,0.6,4.7-7.3,4.7-7.3s-2.4,7.1,0,7.5c2.4,0.4,6.9-6.9,6.9-6.9s-1.8,6.3-0.6,6.7c1.2,0.4,7.3-9.1,7.3-9.1s-3.7,6.3-0.2,6.9
				c3.4,0.6,8.5-4.3,8.5-4.3s-4,4.5-2.2,5.1c7.5,2.6,13.6-7.1,13.6-7.1s-1.4,4.3-5.1,8.9c7.9,2,13.8-9.9,13.8-9.9l-5.9,11.9
				c3,1.6,15.2-12.4,15.2-12.4s-6.3,11-9.9,13.2c2,1.6,9.3-4.9,9.3-4.9s-5.9,7.3-3.7,7.7c3.2,2.6,15.2-13.6,15.2-13.6
				s-4.7,9.5-11.6,17c5.8,2.9,20.1-15.6,20.1-15.6s-0.4,5.9-10.8,15.2c7.7-1,17.6-15.6,17.6-15.6s-3.7,11-12.4,18.7
				c7.6-0.8,19.7-19.5,19.7-19.5s-4.7,13-14.2,20.5c10.5,2.3,25.8-13.4,25.8-13.4s-6,11.2-13.8,15.7c8.7,3.3,20.7-10.4,20.7-10.4
				s-12,18.5-31,17.6c-6.3-0.3-25.2-19-65.7-17.4C32-588.3,20.6-565.6-8-550.2"/>
		</g>
	</g>
</g>
<g id="g2984">
	<g id="g2986">
		<g id="g2994">
		</g>
		<g id="g2992">
			<g id="g3000">
				<defs>
					<rect id="SVGID_7_" x="31.8" y="97.3" width="178.6" height="66.1"/>
				</defs>
				<clipPath id="SVGID_8_">
					<use xlink:href="#SVGID_7_"  overflow="visible"/>
				</clipPath>
				<g id="g3002" opacity="0.35" clip-path="url(#SVGID_8_)">
					<g id="g3004" transform="translate(39.5195,660.6802)">
						<path id="path3006" fill="#373535" d="M-7.7-538.3c16,8,30.6-1.2,49,4c14,3.9,31,8.8,54.2,5.5c23.1-3.3,42.9-13.4,52.3-31.3
							c2.9-8,14.9,1.8,14.9,1.8s-8.7-3.7-8.5-1.9c0.2,1.7,13.1,7.7,13.1,7.7s-11.7-3.7-11-0.9c0.7,2.7,14.6,13.7,14.6,13.7
							s-15.7-12-17-10.3c-1.3,1.6,6.7,8.2,6.7,8.2s-13.3-8.2-18-5.8c-3.4,1.7,13.8,13,13.8,13s-11.2-8.5-13.8-6.3
							c-2.6,2.2,12.6,20.5,12.6,20.5s-17.2-18.7-19-17.8c-1.7,0.9,4.8,9.8,4.8,9.8s-8.5-9.3-10.9-7.7c-2.3,1.6,12.2,25.9,12.2,25.9
							s-15.7-24.8-22.2-20.7c10.2,22.4,6.4,25.6,6.4,25.6s-1.3-22.8-14-22.2c-6.4,0.3,3,17,3,17s-8.7-15.3-14.5-15
							c10.7,20.2,6.9,28.4,6.9,28.4s1.8-17.2-12.7-26.8c5.5,4.9-3.4,26.8-3.4,26.8s7.8-32.3-5.8-26.2c-2.2,1-0.2,16.1-0.2,16.1
							s-2.7-17.3-6.8-16.4c-2.4,0.5-15.2,24-15.2,24s10.5-25.4,7.3-24.3c-2.3,0.8-6.7,11.3-6.7,11.3s2.1-10.3,0-11
							c-2.1-0.6-14,11-14,11s8.8-10.3,7.3-12.5c-2.3-3.2-5-3.4-8.2-2.1c-4.7,1.8-11,10.3-11,10.3s6.3-8.6,5.2-11.9
							c-1.8-5.2-19.8,10-19.8,10s10.6-10,8.2-12.2c-2.4-2.1-15.7-1.5-19.8-1.5C0.2-532.5-4-535.4-7.7-538.3"/>
					</g>
				</g>
			</g>
		</g>
		<g id="g3008" transform="translate(38.8408,662.7183)">
			<path id="path3010" fill="#0071BC" d="M-7.7-542.2c16,8,30.6-1.2,49,4c14,3.9,31,8.8,54.2,5.5c23.1-3.3,42.9-13.4,52.3-31.3
				c2.9-8,14.9,1.8,14.9,1.8s-8.7-3.7-8.5-1.9c0.2,1.7,13.1,7.7,13.1,7.7s-11.7-3.7-11-0.9c0.7,2.7,14.6,13.7,14.6,13.7
				s-15.7-12-17-10.3c-1.3,1.6,6.7,8.2,6.7,8.2s-13.3-8.2-18-5.8c-3.4,1.7,13.8,13,13.8,13s-11.2-8.5-13.8-6.3
				c-2.6,2.2,12.6,20.5,12.6,20.5s-17.2-18.7-19-17.8c-1.7,0.9,4.8,9.8,4.8,9.8s-8.5-9.3-10.9-7.7c-2.3,1.6,12.2,25.9,12.2,25.9
				s-15.7-24.8-22.2-20.7c10.2,22.4,6.4,25.6,6.4,25.6s-1.3-22.8-14-22.2c-6.4,0.3,3,17,3,17s-8.7-15.3-14.5-15
				c10.7,20.2,6.9,28.4,6.9,28.4s1.8-17.2-12.7-26.8c5.5,4.9-3.4,26.8-3.4,26.8s7.8-32.3-5.8-26.2c-2.2,1-0.2,16.1-0.2,16.1
				s-2.7-17.3-6.8-16.4c-2.4,0.5-15.2,24-15.2,24s10.5-25.4,7.3-24.3c-2.3,0.8-6.7,11.3-6.7,11.3s2.1-10.3,0-11
				c-2.1-0.6-14,11-14,11s8.8-10.3,7.3-12.5c-2.3-3.2-5-3.4-8.2-2.1c-4.7,1.8-11,10.3-11,10.3s6.3-8.6,5.2-11.9
				c-1.8-5.2-19.8,10-19.8,10s10.6-10,8.2-12.2c-2.4-2.1-15.7-1.5-19.8-1.5C0.2-536.4-4-539.2-7.7-542.2"/>
		</g>
	</g>
</g>
</svg>
