<?xml version="1.0" encoding="utf-8"?>
<!-- Generator: Adobe Illustrator 18.1.1, SVG Export Plug-In . SVG Version: 6.00 Build 0)  -->
<svg version="1.1" id="Layer_1" xmlns="http://www.w3.org/2000/svg" xmlns:xlink="http://www.w3.org/1999/xlink" x="0px" y="0px"
	 viewBox="0 0 250 250" enable-background="new 0 0 250 250" xml:space="preserve">
<path fill-rule="evenodd" clip-rule="evenodd" fill="#0071BC" d="M183.4,152.1c-0.6-1.6-1.3-3.2-1.9-4.7c-1-2.3-2.1-4.5-3-6.6
	l-0.1-0.1c-8.9-19.4-18.5-39.1-28.6-58.5l-0.4-0.8c-1-1.9-2.1-4-3.1-6.1c-1.3-2.3-2.6-4.8-4.7-7.1c-4.1-5.2-10.1-8-16.4-8
	c-6.5,0-12.3,2.8-16.6,7.8c-1.9,2.3-3.4,4.8-4.7,7.1c-1,2.1-2.1,4.1-3.1,6.1l-0.4,0.8c-10,19.4-19.7,39.1-28.6,58.5l-0.1,0.3
	c-0.9,2.1-1.9,4.3-3,6.6c-0.6,1.4-1.3,3-1.9,4.7c-1.7,4.8-2.2,9.3-1.6,14c1.4,9.7,7.9,17.9,16.8,21.5c3.4,1.4,6.9,2.1,10.5,2.1
	c1,0,2.3-0.1,3.4-0.3c4.3-0.5,8.7-1.9,13-4.4c5.3-3,10.4-7.3,16.1-13.5c5.7,6.2,10.9,10.5,16.1,13.5c4.3,2.5,8.7,3.9,12.9,4.4
	c1,0.1,2.3,0.3,3.4,0.3c3.6,0,7.3-0.6,10.5-2.1c9.1-3.6,15.4-11.9,16.8-21.5C185.6,161.4,185.1,156.9,183.4,152.1L183.4,152.1z
	 M125,158.8c-7-8.8-11.5-17.1-13.1-24.1c-0.6-3-0.8-5.6-0.4-7.9c0.3-2.1,1-3.9,2.1-5.4c2.5-3.5,6.6-5.7,11.4-5.7
	c4.8,0,9.1,2.1,11.4,5.7c1,1.6,1.8,3.4,2.1,5.4c0.4,2.3,0.3,5.1-0.4,7.9C136.5,141.6,132,149.9,125,158.8L125,158.8z M176.6,164.9
	c-0.9,6.7-5.4,12.6-11.8,15.2c-3.1,1.3-6.5,1.7-9.8,1.3c-3.2-0.4-6.5-1.4-9.8-3.4c-4.7-2.6-9.3-6.6-14.8-12.6
	c8.5-10.5,13.7-20.1,15.7-28.6c0.9-4,1-7.6,0.6-11c-0.5-3.2-1.7-6.2-3.5-8.8c-4-5.8-10.7-9.2-18.3-9.2c-7.5,0-14.2,3.5-18.3,9.2
	c-1.8,2.6-3,5.6-3.5,8.8c-0.5,3.4-0.4,7.1,0.6,11c1.9,8.5,7.3,18.3,15.7,28.7c-5.3,6-10.1,10-14.8,12.6c-3.4,1.9-6.6,3-9.8,3.4
	c-3.5,0.4-6.9-0.1-9.8-1.3c-6.3-2.6-10.9-8.4-11.8-15.2c-0.4-3.2-0.1-6.5,1.2-10.1c0.4-1.3,1-2.6,1.7-4.1c0.9-2.1,1.9-4.3,3-6.5
	l0.1-0.3c8.9-19.3,18.5-39,28.5-58.1l0.4-0.8c1-1.9,2.1-4,3.1-6c1-2.1,2.2-4,3.6-5.7c2.7-3.1,6.3-4.8,10.4-4.8c4,0,7.6,1.7,10.4,4.8
	c1.4,1.7,2.6,3.6,3.6,5.7c1,1.9,2.1,4,3.1,6l0.4,0.8c9.8,19.3,19.4,39,28.4,58.3v0.1c1,2.1,1.9,4.4,3,6.5c0.6,1.6,1.3,2.8,1.7,4.1
	C176.8,158.3,177.2,161.5,176.6,164.9L176.6,164.9z"/>
</svg>
