<?xml version="1.0" encoding="utf-8"?>
<!-- Generator: Adobe Illustrator 18.1.1, SVG Export Plug-In . SVG Version: 6.00 Build 0)  -->
<svg version="1.1" id="Layer_1" xmlns="http://www.w3.org/2000/svg" xmlns:xlink="http://www.w3.org/1999/xlink" x="0px" y="0px"
	 viewBox="0 0 250 250" enable-background="new 0 0 250 250" xml:space="preserve">
<path fill="none" stroke="#0071BC" stroke-width="3.8464" stroke-miterlimit="10" d="M198.4,194.4h-151c-2.1,0-3.7-1.7-3.7-3.7v-89
	c0-2.1,1.7-3.7,3.7-3.7h151c2.1,0,3.7,1.7,3.7,3.7v89C202.2,192.8,200.5,194.4,198.4,194.4z"/>
<circle fill="#FFFFFF" stroke="#0071BC" stroke-width="3.8464" stroke-miterlimit="10" cx="179.7" cy="128.2" r="11.7"/>
<line fill="none" stroke="#0071BC" stroke-width="3.8464" stroke-miterlimit="10" x1="167.9" y1="150.9" x2="191.4" y2="150.9"/>
<line fill="none" stroke="#0071BC" stroke-width="3.8464" stroke-miterlimit="10" x1="168.2" y1="163.4" x2="191.2" y2="163.4"/>
<line fill="none" stroke="#0071BC" stroke-width="3.8464" stroke-miterlimit="10" x1="168.2" y1="176" x2="191.2" y2="176"/>
<g>
	<g>
		<g>
			<line fill="none" stroke="#0071BC" stroke-width="3.846" stroke-miterlimit="10" x1="131.1" y1="98.5" x2="159.3" y2="69.1"/>
			<g>
				<g>
					<circle fill="#FFFFFF" cx="158.9" cy="69.5" r="9.3"/>
					<path fill="#0071BC" d="M166.5,76.7c-4,4.2-10.6,4.3-14.8,0.3c-4.2-4-4.3-10.6-0.3-14.8c4-4.2,10.6-4.3,14.8-0.3
						C170.3,65.9,170.5,72.5,166.5,76.7C162.5,80.9,170.5,72.5,166.5,76.7z M153.1,63.9c-3.1,3.2-2.9,8.3,0.3,11.3s8.3,2.9,11.3-0.3
						c3.1-3.2,2.9-8.3-0.3-11.3S156.2,60.7,153.1,63.9C150.1,67.1,156.2,60.7,153.1,63.9z"/>
				</g>
			</g>
		</g>
	</g>
	<g>
		<g>
			<line fill="none" stroke="#0071BC" stroke-width="3.846" stroke-miterlimit="10" x1="114.7" y1="98.5" x2="86.6" y2="69.1"/>
			<g>
				<g>
					<circle fill="#FFFFFF" cx="86.9" cy="69.5" r="9.3"/>
					<path fill="#0071BC" d="M94.5,62.2c4,4.2,3.8,10.8-0.3,14.8s-10.8,3.8-14.8-0.3c-4-4.2-3.8-10.8,0.3-14.8
						C83.9,57.9,90.5,58,94.5,62.2C98.5,66.4,90.5,58,94.5,62.2z M81.1,75c3.1,3.2,8.1,3.3,11.3,0.3s3.3-8.1,0.3-11.3
						c-3.1-3.2-8.1-3.3-11.3-0.3S78.1,71.8,81.1,75C84.2,78.2,78.1,71.8,81.1,75z"/>
				</g>
			</g>
		</g>
	</g>
</g>
<rect x="90.5" y="107.9" fill="#29ABE2" stroke="#0071BC" stroke-width="3.8464" stroke-miterlimit="10" width="32.8" height="76.9"/>
<path fill="#5FEDFF" stroke="#0071BC" stroke-width="3.8464" stroke-miterlimit="10" d="M65.6,107.9c-4.3,0-7.8,3.2-7.8,7.2v62.5
	c0,4,3.5,7.2,7.8,7.2h25v-76.9H65.6z"/>
<path fill="#2B3990" stroke="#0071BC" stroke-width="3.8464" stroke-miterlimit="10" d="M148.3,107.9h-25v76.9h25
	c4.3,0,7.8-3.2,7.8-7.2v-62.5C156.1,111.2,152.6,107.9,148.3,107.9z"/>
<path fill="none" stroke="#0071BC" stroke-width="3.8464" stroke-miterlimit="10" d="M151.5,184.9H62.3c-2.5,0-4.6-2-4.6-4.6v-67.8
	c0-2.5,2-4.6,4.6-4.6h89.2c2.5,0,4.6,2,4.6,4.6v67.8C156.1,182.8,154,184.9,151.5,184.9z"/>
<line fill="none" stroke="#0071BC" stroke-width="3.8464" stroke-miterlimit="10" x1="90.5" y1="107.9" x2="90.5" y2="184.9"/>
<line fill="none" stroke="#0071BC" stroke-width="3.8464" stroke-miterlimit="10" x1="123.3" y1="107.9" x2="123.3" y2="184.9"/>
</svg>
